<svg xmlns="http://www.w3.org/2000/svg" width="20" height="20" viewBox="0 0 20 20" fill="none">
  <mask id="mask0_1_1443" style="mask-type:alpha" maskUnits="userSpaceOnUse" x="0" y="0" width="20" height="20">
    <rect width="20" height="20" fill="#D9D9D9"/>
  </mask>
  <g mask="url(#mask0_1_1443)">
    <path d="M9.99998 17.0833C8.26495 17.0833 6.78953 16.4837 5.57371 15.2845C4.3579 14.0852 3.75 12.632 3.75 10.9247C3.75 10.0561 3.91426 9.25965 4.24279 8.5353C4.57132 7.81094 5.0171 7.15923 5.58012 6.58017L9.99998 2.24365L14.4198 6.58017C14.9829 7.15923 15.4286 7.81495 15.7572 8.54732C16.0857 9.27968 16.25 10.0721 16.25 10.9247C16.25 12.632 15.6421 14.0852 14.4262 15.2845C13.2104 16.4837 11.735 17.0833 9.99998 17.0833ZM9.99998 15.8334V4.00003L6.45831 7.50003C5.9722 7.95836 5.60762 8.47706 5.36456 9.05611C5.12151 9.63518 4.99998 10.258 4.99998 10.9247C4.99998 12.2719 5.48609 13.4268 6.45831 14.3894C7.43053 15.3521 8.61109 15.8334 9.99998 15.8334Z" fill="#1C1B1F"/>
  </g>
</svg>