<svg xmlns="http://www.w3.org/2000/svg" width="60" height="60" viewBox="0 0 60 60" fill="none">
  <path d="M0 30C0 13.4315 13.4315 0 30 0H60V60H30C13.4315 60 0 46.5685 0 30Z" fill="white"/>
  <mask id="mask0_1_1419" style="mask-type:alpha" maskUnits="userSpaceOnUse" x="18" y="15" width="31" height="30">
    <rect x="18.6885" y="15" width="29.5082" height="30" fill="#D9D9D9"/>
  </mask>
  <g mask="url(#mask0_1_1419)">
    <path d="M33.4424 34.9997C34.9793 34.9997 36.2856 34.4528 37.3615 33.3591C38.4373 32.2653 38.9752 30.9372 38.9752 29.3747C38.9752 27.8122 38.4373 26.4841 37.3615 25.3903C36.2856 24.2966 34.9793 23.7497 33.4424 23.7497C31.9055 23.7497 30.5992 24.2966 29.5233 25.3903C28.4475 26.4841 27.9096 27.8122 27.9096 29.3747C27.9096 30.9372 28.4475 32.2653 29.5233 33.3591C30.5992 34.4528 31.9055 34.9997 33.4424 34.9997ZM33.4437 32.5928C32.5648 32.5928 31.8173 32.28 31.2012 31.6546C30.5851 31.0291 30.2771 30.2696 30.2771 29.376C30.2771 28.4825 30.5847 27.7225 31.1999 27.0962C31.8151 26.4698 32.5622 26.1567 33.4411 26.1567C34.32 26.1567 35.0675 26.4694 35.6836 27.0949C36.2997 27.7204 36.6077 28.4799 36.6077 29.3734C36.6077 30.267 36.3001 31.0269 35.6849 31.6533C35.0696 32.2796 34.3226 32.5928 33.4437 32.5928ZM33.4424 38.9814C30.3918 38.9814 27.6186 38.1075 25.1228 36.3598C22.6271 34.612 20.8161 32.2837 19.6899 29.3747C20.8161 26.4658 22.6271 24.1374 25.1228 22.3897C27.6186 20.6419 30.3918 19.7681 33.4424 19.7681C36.493 19.7681 39.2662 20.6419 41.762 22.3897C44.2577 24.1374 46.0687 26.4658 47.1948 29.3747C46.0687 32.2837 44.2577 34.612 41.762 36.3598C39.2662 38.1075 36.493 38.9814 33.4424 38.9814ZM33.443 36.2497C35.7533 36.2497 37.8742 35.6287 39.8058 34.3866C41.7374 33.1445 43.2154 31.4739 44.24 29.3747C43.2154 27.2755 41.7371 25.6049 39.8051 24.3628C37.8731 23.1208 35.752 22.4997 33.4417 22.4997C31.1315 22.4997 29.0106 23.1208 27.079 24.3628C25.1474 25.6049 23.6693 27.2755 22.6448 29.3747C23.6693 31.4739 25.1477 33.1445 27.0797 34.3866C29.0117 35.6287 31.1328 36.2497 33.443 36.2497Z" fill="#010101"/>
  </g>
</svg>