<svg xmlns="http://www.w3.org/2000/svg" width="24" height="24" viewBox="0 0 24 24" fill="none">
  <path d="M17.3766 0H6.62295C2.97106 0 0 2.9712 0 6.62309V17.3768C0 21.0288 2.97106 23.9999 6.62295 23.9999H17.3766C21.0288 23.9999 23.9999 21.0287 23.9999 17.3768V6.62309C24 2.9712 21.0288 0 17.3766 0ZM21.8706 17.3768C21.8706 19.8547 19.8547 21.8705 17.3768 21.8705H6.62295C4.1452 21.8706 2.12938 19.8547 2.12938 17.3768V6.62309C2.12938 4.14534 4.1452 2.12938 6.62295 2.12938H17.3766C19.8545 2.12938 21.8705 4.14534 21.8705 6.62309L21.8706 17.3768Z" fill="white"/>
  <path d="M11.9999 5.81604C8.58993 5.81604 5.81577 8.5902 5.81577 12.0002C5.81577 15.41 8.58993 18.1841 11.9999 18.1841C15.4099 18.1841 18.1841 15.41 18.1841 12.0002C18.1841 8.5902 15.4099 5.81604 11.9999 5.81604ZM11.9999 16.0545C9.76422 16.0545 7.94516 14.2358 7.94516 12.0001C7.94516 9.7642 9.76408 7.94528 11.9999 7.94528C14.2358 7.94528 16.0547 9.7642 16.0547 12.0001C16.0547 14.2358 14.2356 16.0545 11.9999 16.0545Z" fill="white"/>
  <path d="M18.4434 4.0105C18.0332 4.0105 17.6302 4.17659 17.3404 4.46761C17.0493 4.7572 16.8819 5.16037 16.8819 5.57205C16.8819 5.98245 17.0494 6.38547 17.3404 6.67649C17.63 6.96608 18.0332 7.13359 18.4434 7.13359C18.8551 7.13359 19.2569 6.96608 19.5479 6.67649C19.8389 6.38547 20.005 5.98231 20.005 5.57205C20.005 5.16037 19.8389 4.7572 19.5479 4.46761C19.2583 4.17659 18.8551 4.0105 18.4434 4.0105Z" fill="white"/>
</svg>