<svg xmlns="http://www.w3.org/2000/svg" width="25" height="24" viewBox="0 0 25 24" fill="none">
  <g clip-path="url(#clip0_4002_248)">
    <path d="M17.8766 0H7.12295C3.47106 0 0.5 2.9712 0.5 6.62309V17.3768C0.5 21.0288 3.47106 23.9999 7.12295 23.9999H17.8766C21.5288 23.9999 24.4999 21.0287 24.4999 17.3768V6.62309C24.5 2.9712 21.5288 0 17.8766 0ZM22.3706 17.3768C22.3706 19.8547 20.3547 21.8705 17.8768 21.8705H7.12295C4.6452 21.8706 2.62938 19.8547 2.62938 17.3768V6.62309C2.62938 4.14534 4.6452 2.12938 7.12295 2.12938H17.8766C20.3545 2.12938 22.3705 4.14534 22.3705 6.62309V17.3768H22.3706Z" fill="#010101"/>
    <path d="M12.5 5.81606C9.08996 5.81606 6.3158 8.59022 6.3158 12.0002C6.3158 15.4101 9.08996 18.1841 12.5 18.1841C15.9099 18.1841 18.6841 15.4101 18.6841 12.0002C18.6841 8.59022 15.9099 5.81606 12.5 5.81606ZM12.5 16.0546C10.2642 16.0546 8.44518 14.2358 8.44518 12.0001C8.44518 9.76422 10.2641 7.9453 12.5 7.9453C14.7358 7.9453 16.5547 9.76422 16.5547 12.0001C16.5547 14.2358 14.7357 16.0546 12.5 16.0546Z" fill="#010101"/>
    <path d="M18.9434 4.01048C18.5332 4.01048 18.1302 4.17657 17.8404 4.46759C17.5493 4.75719 17.3819 5.16035 17.3819 5.57203C17.3819 5.98243 17.5494 6.38546 17.8404 6.67647C18.13 6.96607 18.5332 7.13358 18.9434 7.13358C19.3551 7.13358 19.7569 6.96607 20.0479 6.67647C20.3389 6.38546 20.505 5.98229 20.505 5.57203C20.505 5.16035 20.3389 4.75719 20.0479 4.46759C19.7583 4.17657 19.3551 4.01048 18.9434 4.01048Z" fill="#010101"/>
  </g>
  <defs>
    <clipPath id="clip0_4002_248">
      <rect width="24" height="24" fill="white" transform="translate(0.5)"/>
    </clipPath>
  </defs>
</svg>