<svg xmlns="http://www.w3.org/2000/svg" width="20" height="24" viewBox="0 0 20 24" fill="none">
  <path d="M17.0733 5.56163C16.9215 5.48313 16.7736 5.39709 16.6304 5.30381C16.2138 5.0284 15.8318 4.70388 15.4927 4.33725C14.6443 3.36647 14.3274 2.38163 14.2107 1.6921H14.2154C14.1179 1.11975 14.1582 0.749439 14.1643 0.749439H10.2999V15.6923C10.2999 15.8929 10.2999 16.0912 10.2915 16.2871C10.2915 16.3115 10.2891 16.334 10.2877 16.3602C10.2877 16.371 10.2877 16.3823 10.2854 16.3935C10.2854 16.3963 10.2854 16.3991 10.2854 16.4019C10.2446 16.9381 10.0728 17.456 9.78489 17.9101C9.49701 18.3643 9.10194 18.7407 8.63443 19.0063C8.14718 19.2835 7.5961 19.4289 7.03552 19.4282C5.23505 19.4282 3.77583 17.9601 3.77583 16.1469C3.77583 14.3338 5.23505 12.8657 7.03552 12.8657C7.37634 12.8654 7.71506 12.919 8.03911 13.0246L8.0438 9.08991C7.06007 8.96284 6.06067 9.04102 5.10866 9.31952C4.15666 9.59802 3.2727 10.0708 2.51255 10.708C1.84649 11.2868 1.28653 11.9773 0.857865 12.7485C0.69474 13.0298 0.0792712 14.1599 0.00473994 15.9941C-0.0421351 17.0352 0.270521 18.1138 0.419584 18.5596V18.569C0.513334 18.8315 0.876615 19.7273 1.46865 20.4824C1.94604 21.0882 2.51006 21.6203 3.14255 22.0616V22.0522L3.15193 22.0616C5.02271 23.3329 7.09693 23.2494 7.09693 23.2494C7.45599 23.2349 8.6588 23.2494 10.0247 22.6021C11.5397 21.8844 12.4022 20.8152 12.4022 20.8152C12.9532 20.1764 13.3914 19.4483 13.6979 18.6623C14.0476 17.743 14.1643 16.6405 14.1643 16.1999V8.27241C14.2111 8.30053 14.8355 8.7135 14.8355 8.7135C14.8355 8.7135 15.7351 9.29006 17.1385 9.66553C18.1454 9.93272 19.5019 9.98897 19.5019 9.98897V6.15272C19.0266 6.20428 18.0615 6.05428 17.0733 5.56163Z" fill="white"/>
</svg>