<svg xmlns="http://www.w3.org/2000/svg" width="25" height="24" viewBox="0 0 25 24" fill="none">
  <path d="M19.8214 5.56219C19.6695 5.4837 19.5217 5.39765 19.3784 5.30437C18.9618 5.02896 18.5799 4.70445 18.2408 4.33781C17.3923 3.36703 17.0754 2.38219 16.9587 1.69266H16.9634C16.8659 1.12031 16.9062 0.75 16.9123 0.75H13.0479V15.6928C13.0479 15.8934 13.0479 16.0917 13.0395 16.2877C13.0395 16.312 13.0372 16.3345 13.0358 16.3608C13.0358 16.3716 13.0358 16.3828 13.0334 16.3941C13.0334 16.3969 13.0334 16.3997 13.0334 16.4025C12.9927 16.9386 12.8208 17.4566 12.5329 17.9107C12.2451 18.3648 11.85 18.7413 11.3825 19.0069C10.8952 19.2841 10.3441 19.4295 9.78357 19.4287C7.9831 19.4287 6.52388 17.9606 6.52388 16.1475C6.52388 14.3344 7.9831 12.8662 9.78357 12.8662C10.1244 12.8659 10.4631 12.9196 10.7872 13.0252L10.7918 9.09047C9.80811 8.9634 8.80872 9.04158 7.85671 9.32008C6.9047 9.59858 6.02074 10.0714 5.2606 10.7086C4.59454 11.2873 4.03457 11.9778 3.60591 12.7491C3.44279 13.0303 2.82732 14.1605 2.75279 15.9947C2.70591 17.0358 3.01857 18.1144 3.16763 18.5602V18.5695C3.26138 18.832 3.62466 19.7278 4.21669 20.483C4.69409 21.0887 5.25811 21.6208 5.8906 22.0622V22.0528L5.89997 22.0622C7.77076 23.3334 9.84497 23.25 9.84497 23.25C10.204 23.2355 11.4068 23.25 12.7728 22.6027C14.2878 21.885 15.1503 20.8158 15.1503 20.8158C15.7013 20.1769 16.1394 19.4488 16.4459 18.6628C16.7956 17.7436 16.9123 16.6411 16.9123 16.2005V8.27297C16.9592 8.30109 17.5836 8.71406 17.5836 8.71406C17.5836 8.71406 18.4831 9.29062 19.8865 9.66609C20.8934 9.93328 22.25 9.98953 22.25 9.98953V6.15328C21.7747 6.20484 20.8095 6.05484 19.8214 5.56219Z" fill="#010101"/>
</svg>