<svg width="31" height="30" viewBox="0 0 31 30" fill="none" xmlns="http://www.w3.org/2000/svg">
<mask id="mask0_1_1421" style="mask-type:alpha" maskUnits="userSpaceOnUse" x="0" y="0" width="31" height="30">
<rect x="0.688477" width="29.5082" height="30" fill="#D9D9D9"/>
</mask>
<g mask="url(#mask0_1_1421)">
<path d="M15.4424 19.9997C16.9793 19.9997 18.2856 19.4528 19.3615 18.3591C20.4373 17.2653 20.9752 15.9372 20.9752 14.3747C20.9752 12.8122 20.4373 11.4841 19.3615 10.3903C18.2856 9.2966 16.9793 8.74972 15.4424 8.74972C13.9055 8.74972 12.5992 9.2966 11.5233 10.3903C10.4475 11.4841 9.9096 12.8122 9.9096 14.3747C9.9096 15.9372 10.4475 17.2653 11.5233 18.3591C12.5992 19.4528 13.9055 19.9997 15.4424 19.9997ZM15.4437 17.5928C14.5648 17.5928 13.8173 17.28 13.2012 16.6546C12.5851 16.0291 12.2771 15.2696 12.2771 14.376C12.2771 13.4825 12.5847 12.7225 13.1999 12.0962C13.8151 11.4698 14.5622 11.1567 15.4411 11.1567C16.32 11.1567 17.0675 11.4694 17.6836 12.0949C18.2997 12.7204 18.6077 13.4799 18.6077 14.3734C18.6077 15.267 18.3001 16.0269 17.6849 16.6533C17.0696 17.2796 16.3226 17.5928 15.4437 17.5928ZM15.4424 23.9814C12.3918 23.9814 9.61859 23.1075 7.12283 21.3598C4.62705 19.612 2.81609 17.2837 1.68994 14.3747C2.81609 11.4658 4.62705 9.13741 7.12283 7.38966C9.61859 5.64193 12.3918 4.76807 15.4424 4.76807C18.493 4.76807 21.2662 5.64193 23.762 7.38966C26.2577 9.13741 28.0687 11.4658 29.1948 14.3747C28.0687 17.2837 26.2577 19.612 23.762 21.3598C21.2662 23.1075 18.493 23.9814 15.4424 23.9814ZM15.443 21.2497C17.7533 21.2497 19.8742 20.6287 21.8058 19.3866C23.7374 18.1445 25.2154 16.4739 26.24 14.3747C25.2154 12.2755 23.7371 10.6049 21.8051 9.36285C19.8731 8.12076 17.752 7.49972 15.4417 7.49972C13.1315 7.49972 11.0106 8.12076 9.07901 9.36285C7.14743 10.6049 5.66935 12.2755 4.64476 14.3747C5.66935 16.4739 7.14766 18.1445 9.07969 19.3866C11.0117 20.6287 13.1328 21.2497 15.443 21.2497Z" fill="#010101"/>
</g>
</svg>
